<?xml version="1.0" encoding="UTF-8" standalone="no"?>
<svg id="svg2" xmlns:rdf="http://www.w3.org/1999/02/22-rdf-syntax-ns#" xmlns="http://www.w3.org/2000/svg" xml:space="preserve" height="76" width="222.7" version="1.1" xmlns:cc="http://creativecommons.org/ns#" viewBox="0 0 222.70459 76" xmlns:dc="http://purl.org/dc/elements/1.1/"><metadata id="metadata8"><rdf:RDF><cc:Work rdf:about=""><dc:format>image/svg+xml</dc:format><dc:type rdf:resource="http://purl.org/dc/dcmitype/StillImage"/><dc:title/></cc:Work></rdf:RDF></metadata><defs id="defs6"><clipPath id="clipPath16" clipPathUnits="userSpaceOnUse"><path id="path18" d="m0 75.35h220.8v-75.35h-220.8v75.35z"/></clipPath></defs><g id="g10" transform="matrix(1.25,0,0,-1.25,0,76)"><g id="g3436" transform="scale(.80690)"><g id="g12"><g id="g14" clip-path="url(#clipPath16)"><g id="g20" transform="translate(20.372 6.3115)"><path id="path22" d="m0 0v6.821c0 1.444-0.382 2.574-1.151 3.395-0.771 0.824-1.812 1.234-3.126 1.234-1.277 0-2.317-0.415-3.113-1.247-0.799-0.836-1.197-1.963-1.197-3.382v-6.821h-1.598v6.821c0 1.419-0.37 2.546-1.111 3.382-0.742 0.832-1.8 1.247-3.168 1.247-1.257 0-2.291-0.41-3.099-1.234-0.808-0.821-1.212-1.951-1.212-3.395v-6.821h-1.596v6.821c0 0.899 0.147 1.719 0.447 2.452 0.299 0.742 0.71 1.373 1.234 1.898 0.525 0.523 1.151 0.93 1.881 1.22 0.732 0.288 1.516 0.437 2.356 0.437 0.752 0 1.414-0.089 1.995-0.254 0.58-0.168 1.077-0.388 1.485-0.659 0.415-0.272 0.752-0.579 1.026-0.913 0.269-0.335 0.489-0.673 0.661-1.01 0.169 0.337 0.392 0.675 0.672 1.01 0.278 0.334 0.623 0.641 1.034 0.913 0.409 0.271 0.892 0.491 1.444 0.659 0.549 0.165 1.169 0.254 1.859 0.254 0.896 0 1.71-0.149 2.436-0.437 0.73-0.29 1.341-0.694 1.847-1.207 0.504-0.514 0.895-1.137 1.175-1.866 0.281-0.732 0.42-1.544 0.42-2.44v-6.878h-1.601z" fill="#fff"/></g><g id="g24" transform="translate(31.953 6.0029)"><path id="path26" d="m0 0c-1.028 0-1.969 0.171-2.819 0.519-0.849 0.347-1.571 0.82-2.17 1.42-0.597 0.599-1.064 1.297-1.398 2.089-0.338 0.795-0.506 1.643-0.506 2.54 0 0.898 0.168 1.746 0.506 2.542 0.334 0.791 0.801 1.494 1.398 2.091 0.599 0.597 1.321 1.068 2.17 1.416 0.85 0.345 1.791 0.52 2.819 0.52 1.043 0 1.992-0.175 2.838-0.52 0.85-0.348 1.575-0.819 2.173-1.416 0.599-0.597 1.06-1.3 1.387-2.091 0.328-0.796 0.489-1.644 0.489-2.542 0-0.897-0.161-1.745-0.489-2.54-0.327-0.792-0.788-1.49-1.387-2.089-0.598-0.6-1.323-1.073-2.173-1.42-0.846-0.348-1.795-0.519-2.838-0.519m0 11.759c-0.736 0-1.427-0.131-2.072-0.393-0.647-0.261-1.208-0.627-1.687-1.093-0.479-0.468-0.854-1.022-1.124-1.654-0.274-0.639-0.411-1.321-0.411-2.051 0-0.728 0.137-1.405 0.411-2.023 0.27-0.617 0.645-1.158 1.124-1.626 0.479-0.469 1.04-0.833 1.687-1.094 0.645-0.263 1.336-0.391 2.072-0.391 0.747 0 1.447 0.128 2.094 0.391 0.649 0.261 1.205 0.622 1.674 1.08 0.471 0.46 0.84 1.003 1.111 1.629 0.272 0.625 0.409 1.306 0.409 2.034 0 0.73-0.137 1.412-0.409 2.051-0.271 0.632-0.64 1.181-1.111 1.638-0.469 0.459-1.025 0.822-1.674 1.095-0.647 0.273-1.347 0.407-2.094 0.407" fill="#fff"/></g><g id="g28" transform="translate(46.621 6.3115)"><path id="path30" d="m0 0-6.117 12.517h1.712l5.303-10.806 5.279 10.806h1.739l-6.147-12.517h-1.769z" fill="#fff"/></g><path id="path32" d="m57.229 23.208h1.713v-1.8h-1.713v1.8zm0.054-4.379h1.602v-12.517h-1.602v12.517z" fill="#fff"/><g id="g34" transform="translate(69.055 19.14)"><path id="path36" d="m0 0c0.92 0 1.754-0.133 2.523-0.396 0.762-0.26 1.422-0.638 1.971-1.135 0.553-0.498 0.977-1.101 1.279-1.814 0.295-0.707 0.446-1.505 0.446-2.384v-7.099h-1.598v7.076c0 0.727-0.127 1.363-0.371 1.904-0.24 0.543-0.574 0.998-0.998 1.361-0.422 0.369-0.908 0.641-1.465 0.83-0.555 0.189-1.146 0.279-1.787 0.279-0.598 0-1.178-0.09-1.727-0.279-0.556-0.189-1.039-0.461-1.453-0.83-0.412-0.363-0.742-0.818-0.986-1.361-0.242-0.541-0.365-1.177-0.365-1.904v-7.076h-1.6v7.099c0 0.879 0.151 1.677 0.449 2.384 0.299 0.713 0.719 1.316 1.26 1.814 0.541 0.497 1.188 0.875 1.942 1.135 0.759 0.263 1.584 0.396 2.48 0.396" fill="#fff"/></g><g id="g38" transform="translate(85.682)"><path id="path40" d="m0 0c-0.973 0-1.93 0.117-2.863 0.349-0.936 0.234-1.752 0.558-2.442 0.967l0.338 1.431c0.746-0.43 1.522-0.758 2.317-0.981 0.799-0.224 1.689-0.34 2.66-0.34 1.672 0 2.992 0.421 3.973 1.253 0.968 0.833 1.462 2.006 1.462 3.522v2.218c-0.246-0.396-0.552-0.742-0.929-1.038-0.371-0.302-0.791-0.555-1.248-0.762-0.457-0.204-0.95-0.358-1.477-0.462-0.521-0.101-1.045-0.154-1.57-0.154-1.049 0-1.996 0.171-2.848 0.518-0.851 0.348-1.576 0.814-2.187 1.406-0.612 0.588-1.08 1.277-1.418 2.075-0.336 0.794-0.504 1.631-0.504 2.513 0 0.879 0.156 1.72 0.474 2.525 0.319 0.805 0.778 1.511 1.371 2.118 0.598 0.611 1.329 1.092 2.186 1.447 0.859 0.354 1.828 0.535 2.912 0.535s2.051-0.181 2.901-0.535c0.849-0.355 1.568-0.836 2.158-1.447 0.586-0.607 1.031-1.313 1.33-2.118 0.297-0.805 0.445-1.65 0.445-2.553v-6.286c0-1.068-0.189-1.99-0.574-2.765-0.383-0.778-0.899-1.424-1.541-1.935-0.651-0.515-1.397-0.896-2.25-1.14-0.85-0.241-1.742-0.361-2.676-0.361m0.207 17.762c-0.767 0-1.476-0.131-2.123-0.393-0.646-0.261-1.211-0.624-1.689-1.078-0.477-0.458-0.852-1.01-1.123-1.659-0.272-0.644-0.413-1.353-0.413-2.117 0-0.713 0.135-1.37 0.397-1.978 0.262-0.61 0.631-1.147 1.1-1.615 0.468-0.469 1.029-0.833 1.689-1.094 0.652-0.263 1.379-0.392 2.162-0.392 0.756 0 1.453 0.124 2.098 0.376 0.646 0.253 1.205 0.607 1.66 1.052 0.461 0.452 0.82 0.983 1.086 1.6 0.262 0.619 0.394 1.281 0.394 1.994 0 0.804-0.138 1.533-0.412 2.19-0.269 0.655-0.638 1.211-1.107 1.67-0.469 0.458-1.024 0.813-1.662 1.066-0.641 0.252-1.323 0.378-2.057 0.378" fill="#fff"/></g><g id="g42" transform="translate(114.89 18.828)"><path id="path44" d="m0 0h1.77l-10.469-18.552h-1.854l4.127 7.271-6.652 11.281h1.828l5.719-9.712 5.531 9.712z" fill="#fff"/></g><g id="g46" transform="translate(124.48 6.0029)"><path id="path48" d="m0 0c-1.023 0-1.963 0.171-2.814 0.519-0.846 0.347-1.571 0.82-2.172 1.42-0.594 0.599-1.059 1.297-1.397 2.089-0.338 0.795-0.506 1.643-0.506 2.54 0 0.898 0.168 1.746 0.506 2.542 0.338 0.791 0.803 1.494 1.397 2.091 0.601 0.597 1.326 1.068 2.172 1.416 0.851 0.345 1.791 0.52 2.814 0.52 1.049 0 1.996-0.175 2.848-0.52 0.847-0.348 1.572-0.819 2.168-1.416 0.595-0.597 1.062-1.3 1.384-2.091 0.33-0.796 0.492-1.644 0.492-2.542 0-0.897-0.162-1.745-0.492-2.54-0.322-0.792-0.789-1.49-1.384-2.089-0.596-0.6-1.321-1.073-2.168-1.42-0.852-0.348-1.799-0.519-2.848-0.519m0 11.759c-0.729 0-1.418-0.131-2.064-0.393-0.647-0.261-1.215-0.627-1.688-1.093-0.48-0.468-0.853-1.022-1.129-1.654-0.273-0.639-0.408-1.321-0.408-2.051 0-0.728 0.135-1.405 0.408-2.023 0.276-0.617 0.649-1.158 1.129-1.626 0.473-0.469 1.041-0.833 1.688-1.094 0.646-0.263 1.335-0.391 2.064-0.391 0.754 0 1.453 0.128 2.1 0.391 0.648 0.261 1.205 0.622 1.673 1.08 0.469 0.46 0.84 1.003 1.114 1.629 0.273 0.625 0.404 1.306 0.404 2.034 0 0.73-0.131 1.412-0.404 2.051-0.274 0.632-0.645 1.181-1.114 1.638-0.468 0.459-1.025 0.822-1.673 1.095-0.647 0.273-1.346 0.407-2.1 0.407" fill="#fff"/></g><g id="g50" transform="translate(140.99 6.0029)"><path id="path52" d="m0 0c-0.897 0-1.719 0.131-2.463 0.394-0.748 0.259-1.396 0.64-1.932 1.138-0.543 0.494-0.966 1.096-1.275 1.807-0.309 0.714-0.465 1.507-0.465 2.387v7.099h1.6v-7.015c0-0.73 0.125-1.367 0.365-1.908 0.248-0.543 0.572-0.997 0.975-1.364 0.404-0.362 0.879-0.638 1.433-0.826 0.555-0.187 1.141-0.279 1.762-0.279 0.639 0 1.238 0.092 1.799 0.279 0.564 0.188 1.053 0.464 1.467 0.826 0.414 0.367 0.74 0.821 0.986 1.364 0.242 0.541 0.365 1.178 0.365 1.908v7.015h1.598v-7.099c0-0.88-0.145-1.673-0.447-2.387-0.297-0.711-0.719-1.313-1.274-1.807-0.553-0.498-1.207-0.879-1.973-1.138-0.767-0.263-1.605-0.394-2.521-0.394" fill="#fff"/></g><g id="g54" transform="translate(150.97 6.3115)"><path id="path56" d="m0 0v7.131c0 0.836 0.123 1.609 0.373 2.315 0.246 0.703 0.619 1.3 1.109 1.795 0.493 0.496 1.1 0.884 1.832 1.165 0.731 0.281 1.561 0.422 2.498 0.422 0.426 0 0.864-0.041 1.303-0.13 0.442-0.087 0.846-0.19 1.221-0.321l-0.254-1.347c-0.373 0.152-0.764 0.259-1.178 0.326-0.414 0.063-0.812 0.094-1.205 0.094-1.254 0-2.252-0.384-2.99-1.148-0.734-0.77-1.107-1.818-1.107-3.144v-7.158h-1.602z" fill="#fff"/></g><g id="g58" transform="translate(182.69 6.3115)"><path id="path60" d="m0 0-5.111 10.807-5.104-10.807h-1.687l-5.301 12.517h1.713l4.513-10.722 5.028 10.722h1.683l5.082-10.722 4.405 10.722h1.709l-5.278-12.517h-1.652z" fill="#fff"/></g><g id="g62" transform="translate(197.67 6.0029)"><path id="path64" d="m0 0c-0.953 0-1.855 0.159-2.705 0.477-0.854 0.319-1.598 0.762-2.231 1.333-0.638 0.572-1.14 1.256-1.503 2.062-0.366 0.804-0.547 1.694-0.547 2.666 0 0.938 0.172 1.804 0.517 2.61 0.342 0.805 0.828 1.501 1.444 2.092 0.613 0.59 1.345 1.054 2.185 1.391 0.838 0.338 1.754 0.506 2.746 0.506 1.045 0 1.99-0.166 2.84-0.491 0.852-0.333 1.574-0.787 2.172-1.377 0.6-0.589 1.057-1.287 1.385-2.091 0.326-0.805 0.492-1.675 0.492-2.61v-6.259h-1.602v2.076c-0.617-0.765-1.361-1.357-2.23-1.769-0.871-0.41-1.858-0.616-2.963-0.616m-0.125 11.759c-0.711 0-1.389-0.126-2.025-0.378-0.637-0.253-1.2-0.608-1.676-1.065-0.477-0.459-0.856-1.006-1.141-1.642-0.279-0.64-0.422-1.342-0.422-2.106 0-0.728 0.141-1.409 0.41-2.034 0.268-0.626 0.649-1.169 1.125-1.629 0.481-0.458 1.04-0.825 1.688-1.095 0.65-0.27 1.357-0.408 2.125-0.408 0.752 0 1.447 0.132 2.086 0.395 0.637 0.263 1.187 0.625 1.656 1.082 0.469 0.455 0.836 1.004 1.1 1.637 0.261 0.639 0.392 1.324 0.392 2.052 0 0.73-0.125 1.412-0.379 2.051-0.252 0.632-0.615 1.181-1.085 1.638-0.471 0.459-1.032 0.822-1.684 1.095-0.66 0.273-1.383 0.407-2.17 0.407" fill="#fff"/></g><g id="g66" transform="translate(219.03 18.828)"><path id="path68" d="m0 0h1.77l-10.469-18.552h-1.856l4.129 7.271-6.652 11.281h1.828l5.719-9.712 5.531 9.712z" fill="#fff"/></g><g id="g70" transform="translate(118.1 41.763)"><path id="path72" d="m0 0c72.014-0.03 102.7-4.419 102.7-4.419v-1.652h-103.76l1.06 6.071z" fill="#ffde00"/></g><g id="g74" transform="translate(108.13 35.692)"><path id="path76" d="m0 0h-108.13v1.652s40.645 4.18 109.29 4.42l-1.16-6.072z" fill="#ffde00"/></g><g id="g78" transform="translate(44.292 52.181)"><path id="path80" d="m0 0h-14.746l1.309 6.224h13.449l1.037 5.672h-13.196l1.052 5.672h14.814l0.965 5.601h-21.363l-6.081-28.619h21.766l0.994 5.45z" fill="#fff"/></g><g id="g82" transform="translate(50.648 67.579)"><path id="path84" d="m0 0h6.297s-2.125-11.119-2.375-12.491c-0.254-1.364-0.658-3.315 2.176-3.315 2.84 0 4.162 1.304 4.969 4.787 0.814 3.48 2.033 11.019 2.033 11.019h6.125l-3.885-20.849h-6.369l0.293 1.321c0 0.403-0.555-1.849-5.745-1.849-5.194 0-6.939 2.695-6.201 6.132 0.694 3.22 2.682 15.245 2.682 15.245" fill="#fff"/></g><g id="g86" transform="translate(74.6 67.573)"><path id="path88" d="m0 0h6.416l-0.252-1.212c0-0.573 1.617 1.139 4.289 1.139h2.764l-1.307-4.711h-3.318c-2.188 0-3.395-1.217-3.887-3.722-0.49-2.507-2.465-12.337-2.465-12.337h-6.109l3.869 20.843z" fill="#fff"/></g><g id="g90" transform="translate(158.41 59.637)"><path id="path92" d="m0 0h-6.244s0.584 4.529-3.559 4.529c-5.519 0-6.808-7.11-6.808-9.227 0-2.116 1.289-4.304 3.722-4.304 4.366 0 5.43 3.646 5.43 3.646h6.014c0-2.989-3.987-8.417-12.571-8.417-4.054 0-8.675 2.112-8.675 8.913 0 6.796 3.48 13.837 13.611 13.837 10.701 0 9.08-8.977 9.08-8.977" fill="#fff"/></g><g id="g94" transform="translate(100.54 68.475)"><path id="path96" d="m0 0c6.154 0 9.082-2.773 9.082-8.116 0-6.243-3.814-14.495-13.537-14.495-6.65 0-9.32 3.794-9.32 9.062 0 5.27 2.923 13.549 13.775 13.549m-0.973-4.383c2.026 0 3.723-1.377 3.723-4.859 0-3.484-2.338-8.598-6.396-8.598-4.053 0-3.977 3.734-3.977 5.19 0 1.455 1.459 8.267 6.65 8.267" fill-rule="evenodd" fill="#fff"/></g><g id="g98" transform="translate(187.43 67.573)"><path id="path100" d="m0 0h6.416l-0.256-1.212c0-0.573 1.621 1.139 4.293 1.139h2.762l-1.305-4.711h-3.316c-2.192 0-3.397-1.217-3.891-3.722-0.492-2.507-2.461-12.337-2.461-12.337h-6.107l3.865 20.843z" fill="#fff"/></g><g id="g102" transform="translate(123.95 63.358)"><path id="path104" d="m0 0c3.391 0 3.48-2.253 3.48-4.367 0-3.571-2.908-7.863-5.988-7.863-3.076 0-3.256 3.327-3.256 4.621 0 1.293 1.157 7.609 5.764 7.609m-9.738 4.294h6.4s-0.232-0.962-0.232-1.535c0-0.569 0.898 2.025 6.406 2.025 5.506 0 6.644-4.138 6.644-7.619s-2.187-14.752-10.859-14.752c-4.385 0-5.892 2.608-5.988 2.21-0.528-2.164-2.242-12.288-2.242-12.288h-6.207l6.078 31.959z" fill-rule="evenodd" fill="#fff"/></g><g id="g106" transform="translate(173.55 55.9)"><path id="path108" d="m0 0s-2.176-0.48-5.418-0.961c-2.799-0.417-3.721-4.863-0.162-4.863 1.861 0 5.58 1.609 5.58 5.824m-11.18 5.597h5.676s0.25 2.76 4.139 2.76c4.861 0 3.154-4.62 1.937-4.62h-4.291c-6.89 0-10.375-4.383-10.375-7.864s2.518-6.32 6.655-6.32c4.529 0 6.39 2.51 6.957 2.51 0.568 0 0.357-1.232 2.789-1.232h3.211l1.132 4.307s-0.875-0.405-0.72 0.735c0.152 1.14 2.05 9.977 2.263 11.333 0.407 2.43-1.379 4.949-9.886 4.949-9.563 0-9.487-6.558-9.487-6.558" fill-rule="evenodd" fill="#fff"/></g></g></g></g></g></svg>
