<?xml version="1.0" encoding="UTF-8" standalone="no"?>
<!-- Created with Inkscape (http://www.inkscape.org/) -->
<svg id="svg2" xmlns:rdf="http://www.w3.org/1999/02/22-rdf-syntax-ns#" xmlns="http://www.w3.org/2000/svg" xml:space="preserve" height="100%" width="100%" version="1.1" xmlns:cc="http://creativecommons.org/ns#" viewBox="0 0 193.82041 76" xmlns:dc="http://purl.org/dc/elements/1.1/"><metadata id="metadata78"><rdf:RDF><cc:Work rdf:about=""><dc:format>image/svg+xml</dc:format><dc:type rdf:resource="http://purl.org/dc/dcmitype/StillImage"/><dc:title/></cc:Work></rdf:RDF></metadata>
<g id="Calque_1" transform="matrix(.58327 0 0 .58327 -151.36 -133.86)">
	<g id="g5">
		<g id="g7">
			<g id="g9">
			</g>
		</g>
		<g id="g13">
			<g id="g15">
				<g id="g17">
					<path id="path19" fill="#ffdc00" d="m439.3 294.5-1.7 10.5h151.8v-1.8c-25.7-2.7-95.4-8.7-150.1-8.7z"/>
				</g>
				<g id="g21">
					<path id="path23" fill="#ffdc00" d="m422 294.5c-74.2 0.3-132.3 5.5-162.5 8.8v1.7h161.3-0.7l1.9-10.5z"/>
					<polygon id="polygon25" points="279.2 250.4 281.2 239.9 308.7 239.9 310.4 229.5 270.8 229.5 259.5 282.6 299.9 282.6 301.8 272.5 274.4 272.5 276.8 260.9 301.8 260.9 303.7 250.4" fill="#fff"/>
					<path id="path27" fill="#fff" d="m320.1 283.6c9.6 0 10.7-4.2 10.7-3.4l-0.5 2.5h11.7l7.2-38.7h-11.4s-2.3 14-3.8 20.4c-1.5 6.5-4 8.9-9.2 8.9-5.3 0-4.5-3.6-4-6.1s4.4-23.2 4.4-23.2h-11.7s-3.7 22.3-5 28.3c-1.3 6.3 1.9 11.3 11.6 11.3z"/>
					<path id="path29" fill="#fff" d="m366.7 259.7c0.9-4.7 3.2-6.9 7.2-6.9h6.2l2.4-8.7h-5.1c-5 0-8 3.2-8 2.1l0.5-2.3h-11.9l-7.2 38.7h11.3s3.7-18.2 4.6-22.9z"/>
					<path id="path31" fill="#fff" d="m496.6 242c-18.8 0-25.3 13.1-25.3 25.7s8.6 16.5 16.1 16.5c15.9 0 23.3-10.1 23.3-15.6h-11.2s-2 6.8-10.1 6.8c-4.5 0-6.9-4.1-6.9-8s2.4-17.1 12.6-17.1c7.7 0 6.6 8.4 6.6 8.4h11.6c0.2 0 3.2-16.7-16.7-16.7z"/>
					<path id="path33" fill="#fff" d="m397.8 284.2c18 0 25.1-15.3 25.1-26.9 0-9.9-5.4-15.1-16.9-15.1-20.1 0-25.6 15.4-25.6 25.1 0.1 9.9 5.1 16.9 17.4 16.9zm-5.8-18.5c0-2.7 2.7-15.3 12.3-15.3 3.8 0 6.9 2.6 6.9 9 0 6.5-4.3 16-11.9 16-7.5 0-7.3-7-7.3-9.7z"/>
					<path id="path35" fill="#fff" d="m586.7 244.1c-5 0-8 3.2-8 2.1l0.5-2.3h-11.9l-7.2 38.7h11.3s3.6-18.2 4.6-22.9c0.9-4.7 3.2-6.9 7.2-6.9h6.2l2.4-8.7h-5.1z"/>
					<path id="path37" fill="#fff" d="m454.8 242.9c-10.2 0-11.9 4.8-11.9 3.8 0-1.1 0.4-2.8 0.4-2.8h-11.9l-11.3 61.1h11.5s3.3-20.7 4.3-24.7c0.2-0.7 3 4.1 11.1 4.1 16.1 0 20.1-20.9 20.1-27.4 0-6.4-2.1-14.1-12.3-14.1zm-9.9 31.5c-5.7 0-6-6.2-6-8.6s2.1-14.1 10.7-14.1c6.3 0 6.5 4.2 6.5 8.1-0.1 6.7-5.5 14.6-11.2 14.6z"/>
					<path id="path39" fill="#fff" d="m538.4 243c-17.7 0-17.6 12.2-17.6 12.2h10.5s0.5-5.1 7.7-5.1c9 0 5.8 8.6 3.6 8.6h-8c-12.8 0-19.2 8.1-19.2 14.6s4.7 11.7 12.3 11.7c8.4 0 11.9-4.7 12.9-4.7 1.1 0 0.7 2.3 5.2 2.3h6l2.1-8s-1.6 0.7-1.3-1.4 3.8-18.5 4.2-21c0.7-4.5-2.6-9.2-18.4-9.2zm-7.2 33.4c-6.6 0-4.9-8.2 0.3-9 6-0.9 10.1-1.8 10.1-1.8 0 7.8-6.9 10.8-10.4 10.8z"/>
				</g>
			</g>
		</g>
		<g id="g41">
			<g id="g43" fill="#fff">
				<path id="path45" d="m289.3 350.5v-10c0-2.1-0.6-3.8-1.7-5s-2.6-1.8-4.6-1.8c-1.9 0-3.4 0.6-4.6 1.8s-1.8 2.9-1.8 4.9v10h-2.3v-10c0-2.1-0.5-3.7-1.6-4.9s-2.6-1.8-4.6-1.8c-1.8 0-3.3 0.6-4.5 1.8s-1.8 2.9-1.8 5v10h-2.3v-10c0-1.3 0.2-2.5 0.7-3.6 0.4-1.1 1-2 1.8-2.8s1.7-1.4 2.7-1.8c1.1-0.4 2.2-0.6 3.4-0.6 1.1 0 2.1 0.1 2.9 0.4 0.8 0.2 1.6 0.6 2.2 1s1.1 0.8 1.5 1.3 0.7 1 1 1.5c0.2-0.5 0.6-1 1-1.5s0.9-0.9 1.5-1.3 1.3-0.7 2.1-1c0.8-0.2 1.7-0.4 2.7-0.4 1.3 0 2.5 0.2 3.6 0.6s2 1 2.7 1.8c0.7 0.7 1.3 1.7 1.7 2.7 0.4 1.1 0.6 2.3 0.6 3.6v10.1h-2.3z"/>
				<path id="path47" d="m306.2 351c-1.5 0-2.9-0.3-4.1-0.8s-2.3-1.2-3.2-2.1-1.6-1.9-2-3.1c-0.5-1.2-0.7-2.4-0.7-3.7s0.2-2.6 0.7-3.7c0.5-1.2 1.2-2.2 2-3.1 0.9-0.9 1.9-1.6 3.2-2.1 1.2-0.5 2.6-0.8 4.1-0.8s2.9 0.3 4.1 0.8 2.3 1.2 3.2 2.1 1.5 1.9 2 3.1 0.7 2.4 0.7 3.7-0.2 2.6-0.7 3.7c-0.5 1.2-1.2 2.2-2 3.1-0.9 0.9-1.9 1.6-3.2 2.1-1.1 0.5-2.5 0.8-4.1 0.8zm0-17.2c-1.1 0-2.1 0.2-3 0.6s-1.8 0.9-2.5 1.6-1.2 1.5-1.6 2.4-0.6 1.9-0.6 3 0.2 2.1 0.6 3 0.9 1.7 1.6 2.4 1.5 1.2 2.5 1.6c0.9 0.4 2 0.6 3 0.6 1.1 0 2.1-0.2 3.1-0.6 0.9-0.4 1.8-0.9 2.4-1.6 0.7-0.7 1.2-1.5 1.6-2.4s0.6-1.9 0.6-3-0.2-2.1-0.6-3-0.9-1.7-1.6-2.4-1.5-1.2-2.4-1.6-2-0.6-3.1-0.6z"/>
				<path id="path49" d="m327.7 350.5-8.9-18.3h2.5l7.7 15.8 7.7-15.8h2.5l-9 18.3h-2.5z"/>
				<path id="path51" d="m343.2 328.5v-2.6h2.5v2.6h-2.5zm0.1 22v-18.3h2.3v18.3h-2.3z"/>
				<path id="path53" d="m360.5 331.8c1.3 0 2.6 0.2 3.7 0.6s2.1 0.9 2.9 1.7c0.8 0.7 1.4 1.6 1.9 2.6 0.4 1 0.7 2.2 0.7 3.5v10.4h-2.3v-10.3c0-1.1-0.2-2-0.5-2.8-0.4-0.8-0.8-1.5-1.5-2-0.6-0.5-1.3-0.9-2.1-1.2s-1.7-0.4-2.6-0.4-1.7 0.1-2.5 0.4-1.5 0.7-2.1 1.2-1.1 1.2-1.4 2c-0.4 0.8-0.5 1.7-0.5 2.8v10.3h-2.3v-10.4c0-1.3 0.2-2.5 0.7-3.5 0.4-1 1.1-1.9 1.8-2.6 0.8-0.7 1.7-1.3 2.8-1.7 0.8-0.4 2-0.6 3.3-0.6z"/>
				<path id="path55" d="m384.8 359.8c-1.4 0-2.8-0.2-4.2-0.5s-2.6-0.8-3.6-1.4l0.5-2.1c1.1 0.6 2.2 1.1 3.4 1.4s2.5 0.5 3.9 0.5c2.4 0 4.4-0.6 5.8-1.8s2.1-2.9 2.1-5.1v-3.2c-0.4 0.6-0.8 1.1-1.4 1.5-0.5 0.4-1.2 0.8-1.8 1.1-0.7 0.3-1.4 0.5-2.2 0.7-0.8 0.1-1.5 0.2-2.3 0.2-1.5 0-2.9-0.3-4.2-0.8-1.2-0.5-2.3-1.2-3.2-2.1s-1.6-1.9-2.1-3c-0.5-1.2-0.7-2.4-0.7-3.7s0.2-2.5 0.7-3.7 1.1-2.2 2-3.1 1.9-1.6 3.2-2.1 2.7-0.8 4.3-0.8 3 0.3 4.2 0.8 2.3 1.2 3.2 2.1 1.5 1.9 1.9 3.1 0.7 2.4 0.7 3.7v9.2c0 1.6-0.3 2.9-0.8 4-0.6 1.1-1.3 2.1-2.3 2.8-0.9 0.8-2 1.3-3.3 1.7-1.1 0.4-2.4 0.6-3.8 0.6zm0.3-26c-1.1 0-2.2 0.2-3.1 0.6s-1.8 0.9-2.5 1.6-1.2 1.5-1.6 2.4-0.6 2-0.6 3.1c0 1 0.2 2 0.6 2.9s0.9 1.7 1.6 2.4 1.5 1.2 2.5 1.6 2 0.6 3.2 0.6c1.1 0 2.1-0.2 3.1-0.5 0.9-0.4 1.8-0.9 2.4-1.5 0.7-0.7 1.2-1.4 1.6-2.3s0.6-1.9 0.6-2.9c0-1.2-0.2-2.2-0.6-3.2s-0.9-1.8-1.6-2.4c-0.7-0.7-1.5-1.2-2.4-1.6-1.1-0.6-2.1-0.8-3.2-0.8z"/>
				<path id="path57" d="m533.7 350.5-7.5-15.8-7.5 15.8h-2.5l-7.8-18.3h2.5l6.6 15.7 7.3-15.7h2.5l7.4 15.7 6.4-15.7h2.5l-7.7 18.3h-2.2z"/>
				<path id="path59" d="m555.6 351c-1.4 0-2.7-0.2-4-0.7-1.2-0.5-2.3-1.1-3.3-1.9-0.9-0.8-1.7-1.8-2.2-3s-0.8-2.5-0.8-3.9 0.3-2.6 0.8-3.8 1.2-2.2 2.1-3.1 2-1.5 3.2-2 2.6-0.7 4-0.7c1.5 0 2.9 0.2 4.2 0.7 1.2 0.5 2.3 1.1 3.2 2s1.5 1.9 2 3.1 0.7 2.4 0.7 3.8v9.2h-2.3v-3c-0.9 1.1-2 2-3.3 2.6-1.2 0.4-2.7 0.7-4.3 0.7zm-0.2-17.2c-1 0-2 0.2-3 0.6-0.9 0.4-1.7 0.9-2.4 1.6s-1.3 1.5-1.7 2.4-0.6 2-0.6 3.1 0.2 2.1 0.6 3 0.9 1.7 1.6 2.4 1.5 1.2 2.5 1.6 2 0.6 3.1 0.6 2.1-0.2 3.1-0.6c0.9-0.4 1.7-0.9 2.4-1.6s1.2-1.5 1.6-2.4 0.6-1.9 0.6-3-0.2-2.1-0.6-3-0.9-1.7-1.6-2.4-1.5-1.2-2.5-1.6c-0.9-0.5-1.9-0.7-3.1-0.7z"/>
				<path id="path61" d="m586.8 332.2h2.6l-15.3 27.1h-2.7l6-10.6-9.7-16.5h2.7l8.4 14.2 8-14.2z"/>
			</g>
			<g id="g63" fill="#ffdc00">
				<path id="path65" d="m420.2 359.6c-1.1 0-1.9-0.6-2.5-1.7-0.5-0.9-0.7-1.8-0.8-2.6l0.2-0.2v-0.2c0-2.8 0.5-5.1 1.6-6.9l0.1-0.1v-1.1l-0.3-0.1c-0.6-0.3-1.2-0.4-1.8-0.4-1.3 0-2.6-0.7-4-2.1-1.3-1.2-2.1-2.5-2.5-3.8-0.1-0.3-0.3-0.7-1.2-1.5-0.7-0.7-0.8-1.1-0.8-1.3s0.3-0.7 0.5-1c0.3-0.6 0.5-0.7 0.5-0.7 0.1 0 0.6 0.1 1.6 0.6 1.1 0.5 1.3 0.7 1.3 0.7 0.2 0.4 0.3 0.9 0.1 1.6l-0.1 0.3 0.3 0.2s0.1 0.1 0.3 0.5c0.3 1 0.9 1.9 1.8 2.7 0.9 0.7 1.5 1 2 1h0.9c0.4 0 0.6-0.2 0.7-0.4h0.3c1.1 0 2.5-1.4 4.5-4.7 0.9-1.5 1.7-3.1 2.6-4.6 0.3 0.1 0.7 0.1 1.1 0.2 1.8 0.9 1.8 1.3 1.8 1.4s-0.1 0.8-2 3.7c-1.7 2.7-2.5 4-2.7 4.6-0.6 1.7-1.3 3.4-2 5-0.8 2.2-1.4 3.9-1.6 5.3 0 0.1-0.1 0.5-0.2 0.8-0.2 0.7-0.4 1.1-0.4 1.4v1.9c0 0.4 0.3 0.7 0.8 0.8 0.1 0.1 0.1 0.1 0.2 0.1l0.2 0.2c-0.2 0.2-0.4 0.4-0.5 0.4z"/>
				<path id="path67" d="m434.5 349.8c-1.3 0-2.6-0.7-3.7-2-1.2-1.4-1.8-2.7-1.8-3.9 0-1.8 0.8-3.5 2.5-5 1.6-1.4 3.4-2.1 5.2-2.1 0.1 0 0.6 0.1 1.7 0.3 1.7 0.3 1.9 0.3 2 0.3 0.2 0 1 0 2.6-0.2 1.7-0.2 2.4-0.2 2.5-0.2 1.2 0 2.6 0.5 4.1 1.5 1.7 1.1 2.5 2.4 2.5 3.8 0 2.5-2.6 4.5-7.9 5.9-3.5 1.1-6.8 1.6-9.7 1.6zm4-3.5c0.1 0 0.3 0.1 0.4 0.2 0.2 0.1 0.4 0.2 0.6 0.2 0.5 0 1-0.5 1.3-0.8 2.3-0.5 3.8-0.9 4.7-1.2 0.5-0.2 1.5-0.7 2.8-1.5 0.6-0.3 0.9-0.9 0.9-1.5 0-0.2 0-0.5-1.3-1.5-1.1-0.9-1.5-1-1.8-1s-0.4 0.1-0.6 0.2l-0.1-0.1c-0.2-0.1-0.4-0.3-0.7-0.3h-0.1-1.7l-0.2 2.3c-0.1 0.3-0.3 0.5-0.8 0.5-0.1-0.1-0.3-0.2-0.8-0.6-0.5-0.5-1-0.8-1.3-1l-0.2-0.1h-0.2-0.1-0.1l-0.9-0.8v0.9c-0.3-0.3-0.5-0.4-0.8-0.4-0.7 0-1.7 0.5-3.2 1.6-1.6 1.1-2.3 2-2.3 2.7 0 1.1 0.6 2.5 3.3 2.5 0.2 0 0.8-0.1 1.6-0.2 0.9 0 1.4-0.1 1.6-0.1z"/>
				<path id="path69" d="m461.6 351.6c-0.2 0-1.1-0.2-1.7-0.4-1.3-0.4-2.4-1.5-3.2-3.2-0.7-1.5-1-2.8-1-4 0-0.3 0.1-1 0.7-3.1 0.6-2.2 1.1-2.5 1.1-2.5 0.4 0 0.9 0.3 1.3 0.9s0.6 0.9 0.6 1.1c-0.1 0.2-0.3 0.7-0.6 1.6-0.5 1.2-0.7 2.3-0.7 3.5 0 1.7 1.3 3.1 3 3.1 1.4 0 3.2-1.2 5.6-3.8 1.7-1.9 2.6-3.1 2.9-3.7 0.4-0.7 0.7-1.6 1-2.5v-0.1s0.1-1 0.1-1.1v-0.2c0-0.2 0.1-0.5 0.3-0.7h0.2c0 0.1 0 0.1 0.1 0.1 0.1 0.1 0.3 0.3 0.6 0.3 0.2 0 0.4-0.1 0.5-0.2 0.2 0.1 0.7 0.7 1.3 4.5 0.6 3.6 1.4 5.3 2.7 5.3h0.4l1.3 1.3c0.4 0.3 0.6 0.7 0.7 0.9-0.8 0.5-1.1 0.7-1.2 0.8-1.2 0-2.4-0.5-3.5-1.5-1-0.9-1.8-2-2.3-3.3l-0.3-0.8-0.5 0.7c-1.9 2.4-3 3.7-3.8 4.4-1.7 1.7-3.1 2.5-4.2 2.5h-1.4z"/>
				<path id="path71" d="m484.4 351.2c-0.2 0-1-0.2-1.7-4.4-0.8-4.9-1.1-6.5-1.3-7.1 0.1-0.2 0.1-0.4 0.1-0.6 0-0.6-0.2-1.3-0.5-2.3-0.2-0.6-0.3-1-0.4-1.3 0-0.1 0.2-0.5 0.4-1.4h1c1.1 0.6 1.6 1.4 1.6 2.4v1.2c0 0.7 0.1 1.3 0.2 1.7l0.1 0.2 0.2 0.1c0.1 0.1 0.2 0.1 0.4 0.1 0.5 0 0.9-0.3 1.6-1 1.2-1.2 1.7-1.7 1.9-1.8 0.2-0.2 1-0.4 1.5-0.5 0.6-0.2 1-0.3 1.2-0.4 2.1-1.1 4.2-1.6 6-1.6 0.2 0 1.3 0.3 4.5 1.1 0.1 0.3 0.3 0.6 0.5 0.8-0.3 0.5-0.7 0.5-0.8 0.5-0.3 0-0.6-0.1-1.2-0.4l-0.3-0.1-0.2 0.2c-0.1 0.1-0.2 0.3-0.3 0.6h-0.5c-2.3 0-4.7 0.7-7.4 2.3-3.6 2-5.3 4.4-5.2 7.4 0 0.1 0 0.3 0.1 0.6 0.1 0.5 0.1 1.3 0.1 1.7-0.1 1.8-0.9 2-1.6 2z"/>
			</g>
		</g>
	</g>
</g>
</svg>
